<svg width="14" height="14" viewBox="0 0 14 14" fill="none" xmlns="http://www.w3.org/2000/svg">
<path fill-rule="evenodd" clip-rule="evenodd" d="M4.13119e-07 7.00013C4.13119e-07 7.24762 0.0921767 7.48498 0.256253 7.65998C0.420329 7.83498 0.642864 7.9333 0.874903 7.9333H11.0115L7.25469 11.9384C7.17334 12.0252 7.10882 12.1282 7.06479 12.2416C7.02077 12.3549 6.99811 12.4764 6.99811 12.5991C6.99811 12.7218 7.02077 12.8433 7.06479 12.9567C7.10882 13.07 7.17334 13.173 7.25469 13.2598C7.33603 13.3466 7.4326 13.4154 7.53889 13.4623C7.64517 13.5093 7.75908 13.5335 7.87412 13.5335C7.98916 13.5335 8.10307 13.5093 8.20935 13.4623C8.31564 13.4154 8.41221 13.3466 8.49355 13.2598L13.743 7.66081C13.8244 7.57413 13.8891 7.47115 13.9332 7.35778C13.9773 7.24441 14 7.12287 14 7.00013C14 6.87739 13.9773 6.75585 13.9332 6.64248C13.8891 6.52911 13.8244 6.42613 13.743 6.33945L8.49355 0.74046C8.32927 0.565237 8.10645 0.466797 7.87412 0.466797C7.64179 0.466797 7.41897 0.565237 7.25469 0.74046C7.09041 0.915683 6.99811 1.15334 6.99811 1.40114C6.99811 1.64894 7.09041 1.8866 7.25469 2.06182L11.0115 6.06697H0.874903C0.642864 6.06697 0.420329 6.16528 0.256253 6.34028C0.0921767 6.51529 4.13119e-07 6.75264 4.13119e-07 7.00013Z" fill="white"/>
</svg>
