<svg xmlns="http://www.w3.org/2000/svg" width="80" height="80" viewBox="0 0 80 80" fill="none">
  <path fill-rule="evenodd" clip-rule="evenodd" d="M47.7942 31.2442C45.6 29.0502 42.5686 27.693 39.2203 27.693C35.8719 27.693 32.8405 29.0502 30.6464 31.2442C28.4523 33.4383 27.0952 36.4697 27.0952 39.8181C27.0952 43.1666 28.4523 46.1978 30.6464 48.392C32.8405 50.5861 35.8719 51.9433 39.2203 51.9433C42.5687 51.9433 45.6 50.5861 47.7942 48.392C49.9883 46.1978 51.3455 43.1666 51.3455 39.8181C51.3455 36.4697 49.9883 33.4383 47.7942 31.2442ZM53.1627 7.59156C50.0373 6.22053 46.7288 5.31199 43.3416 4.89453V21.363C44.6069 21.6584 45.8386 22.0831 47.0172 22.6303C48.1772 23.1697 49.2801 23.8241 50.3094 24.5838L61.8606 13.0325C59.241 10.806 56.3109 8.9731 53.1627 7.59156ZM74.5425 28.6341C75.7509 32.1969 76.4062 36.0195 76.4062 40.0003C76.4062 43.6967 75.8411 47.2569 74.7928 50.5992C73.8498 53.6057 72.5075 56.4719 70.8019 59.1212L58.805 47.1242C59.2111 46.1142 59.5294 45.0712 59.7564 44.0066C60.0371 42.6896 60.1786 41.3467 60.1784 40.0002C60.1784 38.3117 59.957 36.6681 59.5414 35.0973C59.1905 33.7712 58.6971 32.4869 58.0698 31.2669L69.853 19.4838C71.8548 22.2884 73.4348 25.3712 74.5425 28.6341ZM53.8886 72.0778C57.2665 70.5032 60.3749 68.4058 63.0994 65.8628L51.6078 54.3711C50.4498 55.3901 49.1732 56.2659 47.8056 56.9794C46.3929 57.7168 44.8931 58.2739 43.3416 58.6375V75.1061C46.9941 74.6551 50.5531 73.6332 53.8886 72.0778ZM12.8403 63.8525C7.09703 57.567 3.59375 49.1955 3.59375 40.0003C3.59375 30.8052 7.09703 22.4336 12.8403 16.148C18.3839 10.0809 26.0122 5.95219 34.5903 4.89469V21.3633C30.4709 22.327 26.8631 24.6211 24.2452 27.7678C21.483 31.0881 19.8216 35.3523 19.8216 40.0003C19.8216 44.6483 21.4828 48.9125 24.2452 52.2327C26.8631 55.3794 30.4709 57.6734 34.5903 58.6372V75.1058C26.0122 74.0484 18.3839 69.9195 12.8403 63.8525ZM40.2128 45.7167V46.9967C40.2128 47.2868 40.0976 47.565 39.8925 47.7701C39.6873 47.9752 39.4091 48.0905 39.1191 48.0905C38.829 48.0905 38.5508 47.9752 38.3457 47.7701C38.1405 47.565 38.0253 47.2868 38.0253 46.9967V45.7248H36.6716C36.3815 45.7248 36.1033 45.6096 35.8982 45.4045C35.693 45.1994 35.5778 44.9212 35.5778 44.6311C35.5778 44.341 35.693 44.0628 35.8982 43.8577C36.1033 43.6526 36.3815 43.5373 36.6716 43.5373H39.9739C40.1462 43.5371 40.3167 43.5028 40.4757 43.4365C40.6346 43.3701 40.779 43.273 40.9003 43.1508C41.0225 43.0294 41.1196 42.8851 41.1859 42.7261C41.2522 42.5671 41.2865 42.3966 41.2867 42.2244C41.2864 42.0522 41.2521 41.8817 41.1858 41.7227C41.1195 41.5638 41.0225 41.4195 40.9003 41.2981C40.7789 41.1759 40.6346 41.0788 40.4756 41.0125C40.3167 40.9462 40.1462 40.9119 39.9739 40.9116H38.4664C37.5027 40.9116 36.6273 40.518 35.9936 39.8842C35.3597 39.2503 34.9662 38.375 34.9662 37.4114C34.9662 36.4477 35.3597 35.5723 35.9936 34.9384C36.5292 34.4028 37.2372 34.0388 38.0253 33.9389V32.6392C38.0253 32.3491 38.1405 32.0709 38.3457 31.8658C38.5508 31.6607 38.829 31.5455 39.1191 31.5455C39.4091 31.5455 39.6873 31.6607 39.8925 31.8658C40.0976 32.0709 40.2128 32.3491 40.2128 32.6392V33.9111H41.7689C41.9125 33.9111 42.0548 33.9394 42.1875 33.9944C42.3202 34.0493 42.4407 34.1299 42.5423 34.2314C42.6439 34.333 42.7244 34.4536 42.7794 34.5863C42.8344 34.719 42.8627 34.8612 42.8627 35.0048C42.8627 35.1485 42.8344 35.2907 42.7794 35.4234C42.7244 35.5561 42.6439 35.6767 42.5423 35.7782C42.4407 35.8798 42.3202 35.9604 42.1875 36.0153C42.0548 36.0703 41.9125 36.0986 41.7689 36.0986H38.4666C38.2943 36.0989 38.1239 36.1332 37.9649 36.1995C37.806 36.2658 37.6617 36.3628 37.5403 36.485C37.3019 36.7234 37.1539 37.0516 37.1539 37.4114C37.1539 37.7713 37.302 38.0992 37.5403 38.3377C37.6617 38.4599 37.8059 38.557 37.9649 38.6233C38.1238 38.6896 38.2943 38.7239 38.4666 38.7242H39.9741C40.9378 38.7242 41.8131 39.1178 42.447 39.7516C43.0809 40.3855 43.4744 41.2608 43.4744 42.2244C43.4744 43.1881 43.0809 44.0634 42.447 44.6973C41.8659 45.2788 41.0819 45.6577 40.2128 45.7167Z" fill="#0F0F0F"/>
</svg>