<svg xmlns="http://www.w3.org/2000/svg" width="80" height="80" viewBox="0 0 80 80" fill="none">
  <path d="M73.0201 47.1702H63.5845C62.2901 47.1702 61.2408 48.2195 61.2408 49.5139V77.6562C61.2408 78.9506 62.2901 80 63.5845 80H73.0201C74.3145 80 75.3639 78.9506 75.3639 77.6562V49.5139C75.3639 48.2194 74.3145 47.1702 73.0201 47.1702ZM54.152 28.3022H44.7164C43.422 28.3022 42.3727 29.3516 42.3727 30.6459V77.6562C42.3727 78.9506 43.422 80 44.7164 80H54.152C55.4464 80 56.4958 78.9506 56.4958 77.6562V30.6459C56.4958 29.3516 55.4464 28.3022 54.152 28.3022ZM35.2841 53.4595H25.8484C24.5541 53.4595 23.5047 54.5089 23.5047 55.8033V77.6562C23.5047 78.9506 24.5541 80 25.8484 80H35.2841C36.5784 80 37.6278 78.9506 37.6278 77.6562V55.8033C37.6278 54.5087 36.5786 53.4595 35.2841 53.4595ZM16.4161 59.7489H6.98047C5.68609 59.7489 4.63672 60.7983 4.63672 62.0927V77.6562C4.63672 78.9506 5.68609 80 6.98047 80H16.4161C17.7105 80 18.7598 78.9506 18.7598 77.6562V62.0927C18.7598 60.7981 17.7105 59.7489 16.4161 59.7489ZM73.0201 37.7362H63.5845C62.2901 37.7362 61.2408 38.7856 61.2408 40.08C61.2408 41.3744 62.2901 42.4237 63.5845 42.4237H73.0201C74.3145 42.4237 75.3639 41.3744 75.3639 40.08C75.3639 38.7856 74.3145 37.7362 73.0201 37.7362ZM54.152 18.8681H44.7164C43.422 18.8681 42.3727 19.9175 42.3727 21.2119C42.3727 22.5062 43.422 23.5556 44.7164 23.5556H54.152C55.4464 23.5556 56.4958 22.5062 56.4958 21.2119C56.4958 19.9175 55.4464 18.8681 54.152 18.8681ZM35.2841 44.0256H25.8484C24.5541 44.0256 23.5047 45.075 23.5047 46.3694C23.5047 47.6638 24.5541 48.7131 25.8484 48.7131H35.2841C36.5784 48.7131 37.6278 47.6638 37.6278 46.3694C37.6278 45.075 36.5786 44.0256 35.2841 44.0256ZM16.4161 50.3148H6.98047C5.68609 50.3148 4.63672 51.3642 4.63672 52.6586C4.63672 53.953 5.68609 55.0023 6.98047 55.0023H16.4161C17.7105 55.0023 18.7598 53.953 18.7598 52.6586C18.7598 51.3642 17.7105 50.3148 16.4161 50.3148ZM73.0201 28.3022H63.5845C62.2901 28.3022 61.2408 29.3516 61.2408 30.6459C61.2408 31.9403 62.2901 32.9897 63.5845 32.9897H73.0201C74.3145 32.9897 75.3639 31.9403 75.3639 30.6459C75.3639 29.3516 74.3145 28.3022 73.0201 28.3022ZM54.152 9.43406H44.7164C43.422 9.43406 42.3727 10.4834 42.3727 11.7778C42.3727 13.0722 43.422 14.1216 44.7164 14.1216H54.152C55.4464 14.1216 56.4958 13.0722 56.4958 11.7778C56.4958 10.4834 55.4464 9.43406 54.152 9.43406ZM35.2841 34.5916H25.8484C24.5541 34.5916 23.5047 35.6409 23.5047 36.9353C23.5047 38.2297 24.5541 39.2791 25.8484 39.2791H35.2841C36.5784 39.2791 37.6278 38.2297 37.6278 36.9353C37.6278 35.6409 36.5786 34.5916 35.2841 34.5916ZM16.4161 40.8809H6.98047C5.68609 40.8809 4.63672 41.9303 4.63672 43.2247C4.63672 44.5191 5.68609 45.5684 6.98047 45.5684H16.4161C17.7105 45.5684 18.7598 44.5191 18.7598 43.2247C18.7598 41.9303 17.7105 40.8809 16.4161 40.8809ZM63.5845 23.5556H73.0201C74.3145 23.5556 75.3639 22.5062 75.3639 21.2119C75.3639 19.9175 74.3145 18.8681 73.0201 18.8681H63.5845C62.2901 18.8681 61.2408 19.9175 61.2408 21.2119C61.2408 22.5062 62.2901 23.5556 63.5845 23.5556ZM54.152 0H44.7164C43.422 0 42.3727 1.04937 42.3727 2.34375C42.3727 3.63813 43.422 4.6875 44.7164 4.6875H54.152C55.4464 4.6875 56.4958 3.63813 56.4958 2.34375C56.4958 1.04937 55.4464 0 54.152 0ZM35.2841 25.1575H25.8484C24.5541 25.1575 23.5047 26.2069 23.5047 27.5012C23.5047 28.7956 24.5541 29.845 25.8484 29.845H35.2841C36.5784 29.845 37.6278 28.7956 37.6278 27.5012C37.6278 26.2069 36.5786 25.1575 35.2841 25.1575ZM16.4161 31.4469H6.98047C5.68609 31.4469 4.63672 32.4962 4.63672 33.7906C4.63672 35.085 5.68609 36.1344 6.98047 36.1344H16.4161C17.7105 36.1344 18.7598 35.085 18.7598 33.7906C18.7598 32.4962 17.7105 31.4469 16.4161 31.4469Z" fill="#0F0F0F"/>
</svg>