<svg xmlns="http://www.w3.org/2000/svg" width="80" height="80" viewBox="0 0 80 80" fill="none">
  <path d="M40 3.66504C19.9325 3.66504 3.66504 19.9325 3.66504 40C3.66504 60.0675 19.9325 76.335 40 76.335C60.0675 76.335 76.335 60.0675 76.335 40C76.335 19.9325 60.0675 3.66504 40 3.66504ZM43.1375 59.7V64.8175H38.2425V59.7575C30.21 58.6575 26.6925 52.0575 26.6925 52.0575L31.6925 47.875C31.6925 47.875 34.885 53.4325 40.66 53.4325C43.85 53.4325 46.27 51.725 46.27 48.8075C46.27 41.9875 27.895 42.815 27.895 30.1625C27.895 24.6625 32.245 20.7 38.24 19.7625V14.65H43.135V19.7625C47.315 20.3125 52.265 22.5125 52.265 27.245V30.875H45.775V29.115C45.775 27.3 43.4625 26.09 40.875 26.09C37.575 26.09 35.1575 27.74 35.1575 30.05C35.1575 37.035 53.5325 35.33 53.5325 48.5875C53.5325 54.0375 49.4625 58.7625 43.1375 59.7Z" fill="#0F0F0F"/>
</svg>