<svg xmlns="http://www.w3.org/2000/svg" width="80" height="80" viewBox="0 0 80 80" fill="none">
  <g clip-path="url(#clip0_28_28086)">
    <path d="M48.4609 46.1797C48.4641 51.8328 38.7844 51.1891 35.7 51.1922V41.1703C38.7875 41.1703 48.4609 40.2844 48.4609 46.1797ZM80 40C80 62.0906 62.0906 80 40 80C17.9094 80 0 62.0906 0 40C0 17.9094 17.9094 0 40 0C62.0906 0 80 17.9078 80 40ZM50.9266 37.6641C53.5656 36.3203 55.2156 33.9516 54.8297 30.0078C54.3109 24.6156 49.6578 22.8094 43.7813 22.2937V14.8156H39.2297V22.0969C38.0328 22.0969 36.8094 22.1203 35.5953 22.1453V14.8156H31.0469V22.2922C30.0594 22.3125 29.0922 22.3312 28.1484 22.3312V22.3078L21.8688 22.3062V27.1688C21.8688 27.1688 25.2312 27.1047 25.175 27.1672C27.0187 27.1672 27.6188 28.2375 27.7938 29.1625V37.6828C27.9219 37.6828 28.0875 37.6891 28.275 37.7141H27.7938V49.6484C27.7109 50.2281 27.3703 51.1547 26.0828 51.1562C26.1406 51.2078 22.7734 51.1562 22.7734 51.1562L21.8688 56.5922H27.7922C28.8953 56.5922 29.9797 56.6125 31.0437 56.6187V64.1828H35.5922V56.6984C36.8406 56.725 38.0484 56.7344 39.2281 56.7328V64.1828H43.7781V56.6328C51.4328 56.1938 56.7891 54.2656 57.4547 47.0797C57.9922 41.2922 55.2688 38.7109 50.925 37.6672L50.9266 37.6641ZM46.3438 32.0406C46.3438 26.6766 38.2703 27.4938 35.7016 27.4938V36.5828C38.2703 36.5828 46.3422 37.1828 46.3438 32.0406Z" fill="#0F0F0F"/>
  </g>
  <defs>
    <clipPath id="clip0_28_28086">
      <rect width="80" height="80" fill="white"/>
    </clipPath>
  </defs>
</svg>