<svg xmlns="http://www.w3.org/2000/svg" width="24" height="24" viewBox="0 0 24 24" fill="none">
  <path d="M21.75 18.6231V22.4996C21.75 22.6985 21.671 22.8893 21.5303 23.0299C21.3897 23.1706 21.1989 23.2496 21 23.2496C20.8011 23.2496 20.6103 23.1706 20.4697 23.0299C20.329 22.8893 20.25 22.6985 20.25 22.4996V18.6231C20.2465 17.6604 20.0449 16.7087 19.6579 15.8273C19.2708 14.9459 18.7065 14.1536 18 13.4996V18.9699C17.9999 19.1313 17.9477 19.2884 17.8512 19.4178C17.7546 19.5471 17.619 19.6419 17.4643 19.688C17.3096 19.7341 17.1442 19.7291 16.9926 19.6737C16.841 19.6183 16.7113 19.5155 16.6228 19.3806L15.6216 17.8515C15.6141 17.8402 15.6066 17.8281 15.6 17.8159C15.4529 17.5562 15.2087 17.3655 14.9211 17.2859C14.6334 17.2062 14.326 17.2441 14.0662 17.3912C13.8065 17.5382 13.6159 17.7825 13.5363 18.0701C13.4566 18.3577 13.4945 18.6652 13.6416 18.9249L15.7162 22.0927C15.8252 22.2592 15.8635 22.4621 15.8228 22.6568C15.7821 22.8515 15.6657 23.0221 15.4992 23.131C15.3328 23.2399 15.1298 23.2782 14.9351 23.2375C14.7404 23.1968 14.5698 23.0805 14.4609 22.914L12.3741 19.7265L12.3516 19.6909C12.3159 19.629 12.2831 19.5662 12.2531 19.5034H5.25C5.05109 19.5034 4.86032 19.4243 4.71967 19.2837C4.57902 19.143 4.5 18.9523 4.5 18.7534V8.99961C4.5 8.60179 4.65804 8.22026 4.93934 7.93895C5.22064 7.65765 5.60218 7.49961 6 7.49961H10.5V11.9996C10.5 12.1985 10.579 12.3893 10.7197 12.5299C10.8603 12.6706 11.0511 12.7496 11.25 12.7496C11.4489 12.7496 11.6397 12.6706 11.7803 12.5299C11.921 12.3893 12 12.1985 12 11.9996V7.49961H16.5C16.8978 7.49961 17.2794 7.65765 17.5607 7.93895C17.842 8.22026 18 8.60179 18 8.99961V11.589C19.1512 12.3669 20.0946 13.4145 20.7482 14.6405C21.4018 15.8665 21.7458 17.2337 21.75 18.6231ZM12 3.30993L13.7194 5.03024C13.8601 5.17097 14.051 5.25003 14.25 5.25003C14.449 5.25003 14.6399 5.17097 14.7806 5.03024C14.9214 4.88951 15.0004 4.69864 15.0004 4.49961C15.0004 4.30059 14.9214 4.10972 14.7806 3.96899L11.7806 0.968988C11.711 0.899256 11.6283 0.843937 11.5372 0.806194C11.4462 0.76845 11.3486 0.749023 11.25 0.749023C11.1514 0.749023 11.0538 0.76845 10.9628 0.806194C10.8717 0.843937 10.789 0.899256 10.7194 0.968988L7.71937 3.96899C7.57864 4.10972 7.49958 4.30059 7.49958 4.49961C7.49958 4.69864 7.57864 4.88951 7.71937 5.03024C7.86011 5.17097 8.05098 5.25003 8.25 5.25003C8.44902 5.25003 8.63989 5.17097 8.78063 5.03024L10.5 3.30993V7.49961H12V3.30993Z" fill="#0F0F0F"/>
</svg>