<svg xmlns="http://www.w3.org/2000/svg" width="24" height="24" viewBox="0 0 24 24" fill="none">
  <path d="M12 5.25H10.5V1.5C10.5 1.30109 10.579 1.11032 10.7197 0.96967C10.8603 0.829018 11.0511 0.75 11.25 0.75C11.4489 0.75 11.6397 0.829018 11.7803 0.96967C11.921 1.11032 12 1.30109 12 1.5V5.25ZM18 11.5894V6.75C18 6.35218 17.842 5.97064 17.5607 5.68934C17.2794 5.40804 16.8978 5.25 16.5 5.25H12V10.9397L13.7194 9.21937C13.7891 9.14969 13.8718 9.09442 13.9628 9.0567C14.0539 9.01899 14.1515 8.99958 14.25 8.99958C14.3485 8.99958 14.4461 9.01899 14.5372 9.0567C14.6282 9.09442 14.7109 9.14969 14.7806 9.21937C14.8503 9.28906 14.9056 9.37178 14.9433 9.46283C14.981 9.55387 15.0004 9.65145 15.0004 9.75C15.0004 9.84855 14.981 9.94613 14.9433 10.0372C14.9056 10.1282 14.8503 10.2109 14.7806 10.2806L11.7806 13.2806C11.711 13.3504 11.6283 13.4057 11.5372 13.4434C11.4462 13.4812 11.3486 13.5006 11.25 13.5006C11.1514 13.5006 11.0538 13.4812 10.9628 13.4434C10.8717 13.4057 10.789 13.3504 10.7194 13.2806L7.71937 10.2806C7.57864 10.1399 7.49958 9.94902 7.49958 9.75C7.49958 9.55098 7.57864 9.36011 7.71937 9.21937C7.86011 9.07864 8.05098 8.99958 8.25 8.99958C8.44902 8.99958 8.63989 9.07864 8.78063 9.21937L10.5 10.9397V5.25H6C5.60218 5.25 5.22064 5.40804 4.93934 5.68934C4.65804 5.97064 4.5 6.35218 4.5 6.75V18.75C4.5 18.9489 4.57902 19.1397 4.71967 19.2803C4.86032 19.421 5.05109 19.5 5.25 19.5H12.2531C12.2831 19.5628 12.3159 19.6256 12.3516 19.6875L12.3741 19.7231L14.4609 22.9106C14.5698 23.0771 14.7404 23.1935 14.9351 23.2342C15.1298 23.2749 15.3328 23.2366 15.4992 23.1277C15.6657 23.0188 15.7821 22.8482 15.8228 22.6535C15.8635 22.4587 15.8252 22.2558 15.7162 22.0894L13.6416 18.9216C13.4945 18.6619 13.4566 18.3544 13.5363 18.0667C13.6159 17.7791 13.8065 17.5349 14.0662 17.3878C14.326 17.2407 14.6334 17.2029 14.9211 17.2825C15.2087 17.3622 15.4529 17.5528 15.6 17.8125C15.6066 17.8247 15.6141 17.8369 15.6216 17.8481L16.6228 19.3772C16.7113 19.5122 16.841 19.615 16.9926 19.6704C17.1442 19.7258 17.3096 19.7308 17.4643 19.6847C17.619 19.6385 17.7546 19.5438 17.8512 19.4144C17.9477 19.285 17.9999 19.128 18 18.9666V13.5C18.7069 14.1544 19.2715 14.9473 19.6586 15.8294C20.0457 16.7115 20.247 17.6639 20.25 18.6272V22.5C20.25 22.6989 20.329 22.8897 20.4697 23.0303C20.6103 23.171 20.8011 23.25 21 23.25C21.1989 23.25 21.3897 23.171 21.5303 23.0303C21.671 22.8897 21.75 22.6989 21.75 22.5V18.6234C21.7458 17.2341 21.4018 15.8669 20.7482 14.6409C20.0946 13.4149 19.1512 12.3673 18 11.5894Z" fill="white"/>
</svg>