<svg xmlns="http://www.w3.org/2000/svg" width="20" height="21" viewBox="0 0 20 21" fill="none">
  <g clip-path="url(#clip0_28_28823)">
    <path d="M10 0.5625C4.4775 0.5625 0 5.04 0 10.5625C0 16.085 4.4775 20.5625 10 20.5625C15.5225 20.5625 20 16.085 20 10.5625C20 5.04 15.5225 0.5625 10 0.5625ZM6.585 6.14333H13.415C14.6692 6.14333 15.4667 7.5 14.8358 8.59333L10.62 15.8975C10.557 16.0061 10.4666 16.0963 10.3578 16.159C10.249 16.2217 10.1256 16.2547 10 16.2547C9.87442 16.2547 9.75104 16.2217 9.64223 16.159C9.53342 16.0963 9.44299 16.0061 9.38 15.8975L5.16583 8.59333C4.53417 7.49833 5.33 6.14333 6.585 6.14333ZM10.6217 7.39V13.7067L11.54 11.9333L13.7533 7.97C13.7872 7.9108 13.8049 7.8437 13.8045 7.77549C13.8042 7.70728 13.7858 7.64036 13.7513 7.58152C13.7168 7.52267 13.6674 7.47397 13.6081 7.44034C13.5487 7.40671 13.4815 7.38935 13.4133 7.39H10.6217ZM6.58333 7.39167C6.51527 7.39093 6.44821 7.40817 6.38895 7.44165C6.32968 7.47513 6.28031 7.52367 6.24581 7.58235C6.21131 7.64103 6.19292 7.70777 6.19248 7.77584C6.19205 7.84391 6.20959 7.91088 6.24333 7.97L8.45833 11.9317L9.37667 13.7067V7.39167H6.58333Z" fill="#0088CC"/>
  </g>
  <defs>
    <clipPath id="clip0_28_28823">
      <rect width="20" height="20" fill="white" transform="translate(0 0.5625)"/>
    </clipPath>
  </defs>
</svg>