<svg xmlns="http://www.w3.org/2000/svg" width="20" height="21" viewBox="0 0 20 21" fill="none">
  <path d="M10.0003 17.2293L1.66699 9.0085L4.84616 3.896H15.1545L18.3337 9.0085L10.0003 17.2293ZM10.8337 9.72933V8.71266C12.3337 8.78766 13.7337 9.07933 14.167 9.4585C13.6628 9.90016 11.8587 10.221 10.0003 10.221C8.14199 10.221 6.33783 9.90016 5.83366 9.4585C6.26283 9.07933 7.66699 8.79183 9.16699 8.7085V9.72933H10.8337ZM5.83366 9.45433V10.0668C6.26283 10.446 7.66283 10.7335 9.16699 10.8168V13.0627H10.8337V10.8127C12.3337 10.7377 13.7378 10.446 14.167 10.0668V8.846C13.7378 8.46683 12.3337 8.17516 10.8337 8.096V7.22933H13.3337V5.97933H6.66699V7.22933H9.16699V8.096C7.66283 8.17516 6.26283 8.46683 5.83366 8.846V9.45433Z" fill="#009393"/>
</svg>