<svg width="24" height="24" viewBox="0 0 24 24" fill="none" xmlns="http://www.w3.org/2000/svg">
<path d="M20.625 4.5V14.25C20.625 14.5484 20.5065 14.8345 20.2955 15.0455C20.0845 15.2565 19.7984 15.375 19.5 15.375H8.40563L10.0153 16.9847C10.0857 17.0551 10.1252 17.1505 10.1252 17.25C10.1252 17.3495 10.0857 17.4449 10.0153 17.5153C9.94495 17.5857 9.84951 17.6252 9.75 17.6252C9.65049 17.6252 9.55505 17.5857 9.48469 17.5153L7.23469 15.2653C7.19982 15.2305 7.17216 15.1891 7.15329 15.1436C7.13442 15.0981 7.12471 15.0493 7.12471 15C7.12471 14.9507 7.13442 14.9019 7.15329 14.8564C7.17216 14.8109 7.19982 14.7695 7.23469 14.7347L9.48469 12.4847C9.55505 12.4143 9.65049 12.3748 9.75 12.3748C9.84951 12.3748 9.94495 12.4143 10.0153 12.4847C10.0857 12.5551 10.1252 12.6505 10.1252 12.75C10.1252 12.8495 10.0857 12.9449 10.0153 13.0153L8.40563 14.625H19.5C19.5995 14.625 19.6948 14.5855 19.7652 14.5152C19.8355 14.4448 19.875 14.3495 19.875 14.25V4.5C19.875 4.40054 19.8355 4.30516 19.7652 4.23484C19.6948 4.16451 19.5995 4.125 19.5 4.125H9C8.90054 4.125 8.80516 4.16451 8.73483 4.23484C8.66451 4.30516 8.625 4.40054 8.625 4.5V5.25C8.625 5.34946 8.58549 5.44484 8.51517 5.51516C8.44484 5.58549 8.34946 5.625 8.25 5.625C8.15054 5.625 8.05516 5.58549 7.98483 5.51516C7.91451 5.44484 7.875 5.34946 7.875 5.25V4.5C7.875 4.20163 7.99353 3.91548 8.2045 3.7045C8.41548 3.49353 8.70163 3.375 9 3.375H19.5C19.7984 3.375 20.0845 3.49353 20.2955 3.7045C20.5065 3.91548 20.625 4.20163 20.625 4.5ZM15.75 18.375C15.6505 18.375 15.5552 18.4145 15.4848 18.4848C15.4145 18.5552 15.375 18.6505 15.375 18.75V19.5C15.375 19.5995 15.3355 19.6948 15.2652 19.7652C15.1948 19.8355 15.0995 19.875 15 19.875H4.5C4.40054 19.875 4.30516 19.8355 4.23484 19.7652C4.16451 19.6948 4.125 19.5995 4.125 19.5V9.75C4.125 9.65054 4.16451 9.55516 4.23484 9.48483C4.30516 9.41451 4.40054 9.375 4.5 9.375H15.5944L13.9847 10.9847C13.9143 11.0551 13.8748 11.1505 13.8748 11.25C13.8748 11.3495 13.9143 11.4449 13.9847 11.5153C14.0551 11.5857 14.1505 11.6252 14.25 11.6252C14.3495 11.6252 14.4449 11.5857 14.5153 11.5153L16.7653 9.26531C16.8002 9.23049 16.8278 9.18913 16.8467 9.1436C16.8656 9.09808 16.8753 9.04928 16.8753 9C16.8753 8.95072 16.8656 8.90192 16.8467 8.8564C16.8278 8.81087 16.8002 8.76951 16.7653 8.73469L14.5153 6.48469C14.4449 6.41432 14.3495 6.37479 14.25 6.37479C14.1505 6.37479 14.0551 6.41432 13.9847 6.48469C13.9143 6.55505 13.8748 6.65049 13.8748 6.75C13.8748 6.84951 13.9143 6.94495 13.9847 7.01531L15.5944 8.625H4.5C4.20163 8.625 3.91548 8.74353 3.7045 8.9545C3.49353 9.16548 3.375 9.45163 3.375 9.75V19.5C3.375 19.7984 3.49353 20.0845 3.7045 20.2955C3.91548 20.5065 4.20163 20.625 4.5 20.625H15C15.2984 20.625 15.5845 20.5065 15.7955 20.2955C16.0065 20.0845 16.125 19.7984 16.125 19.5V18.75C16.125 18.6505 16.0855 18.5552 16.0152 18.4848C15.9448 18.4145 15.8495 18.375 15.75 18.375Z" fill="black"/>
</svg>
